<svg xmlns="http://www.w3.org/2000/svg" viewBox="0 0 800 1000" role="img" aria-label="Bubble Dog Brown — sample placeholder">
  <defs>
    <radialGradient id="bg" cx="50%" cy="40%" r="80%">
      <stop offset="0%" stop-color="#f4ede4"/>
      <stop offset="100%" stop-color="#e3d8c6"/>
    </radialGradient>
    <radialGradient id="bubble" cx="35%" cy="35%" r="65%">
      <stop offset="0%" stop-color="#ffffff" stop-opacity="0.95"/>
      <stop offset="60%" stop-color="#ffffff" stop-opacity="0.35"/>
      <stop offset="100%" stop-color="#ffffff" stop-opacity="0"/>
    </radialGradient>
  </defs>

  <rect width="800" height="1000" fill="url(#bg)"/>

  <g opacity="0.85">
    <ellipse cx="400" cy="640" rx="180" ry="40" fill="#000" opacity="0.06"/>
    <path d="M260 600 q40 -160 140 -160 q100 0 140 160 q-20 80 -140 80 q-120 0 -140 -80 z" fill="#7a4a2b"/>
    <circle cx="400" cy="380" r="120" fill="#7a4a2b"/>
    <ellipse cx="335" cy="320" rx="45" ry="70" fill="#5e3820"/>
    <ellipse cx="465" cy="320" rx="45" ry="70" fill="#5e3820"/>
    <circle cx="370" cy="390" r="6" fill="#1b1208"/>
    <circle cx="430" cy="390" r="6" fill="#1b1208"/>
    <ellipse cx="400" cy="430" rx="14" ry="9" fill="#1b1208"/>
  </g>

  <g>
    <circle cx="230" cy="520" r="70" fill="url(#bubble)"/>
    <circle cx="560" cy="500" r="55" fill="url(#bubble)"/>
    <circle cx="300" cy="700" r="90" fill="url(#bubble)"/>
    <circle cx="520" cy="720" r="65" fill="url(#bubble)"/>
    <circle cx="420" cy="560" r="40" fill="url(#bubble)"/>
    <circle cx="180" cy="660" r="38" fill="url(#bubble)"/>
    <circle cx="620" cy="640" r="42" fill="url(#bubble)"/>
    <circle cx="400" cy="780" r="55" fill="url(#bubble)"/>
  </g>

  <g font-family="'Times New Roman', serif" fill="#2a1c10">
    <text x="60" y="930" font-size="22" letter-spacing="6">GENE DOGS · 42 A/W</text>
    <text x="60" y="965" font-size="14" letter-spacing="4" opacity="0.55">BUBBLE DOG — BROWN · SAMPLE PLACEHOLDER</text>
  </g>
</svg>
